<svg xmlns="http://www.w3.org/2000/svg" width="18.74" height="19.86" viewBox="0 0 18.74 19.86" fill="currentColor"><defs></defs><g id="Layer_2" data-name="Layer 2"><g id="university"><path class="cls-1" d="M18.1,2.89,9.67.05a.88.88,0,0,0-.6,0L.64,2.89A.94.94,0,0,0,0,3.78V6.62a1,1,0,0,0,.94,1h.93v6.79A2.83,2.83,0,0,0,0,17v1.89a.94.94,0,0,0,.94.94H17.81a.94.94,0,0,0,.93-.94h0V17a2.83,2.83,0,0,0-1.87-2.67V7.57h.94a1,1,0,0,0,.93-1h0V3.78A.94.94,0,0,0,18.1,2.89Zm-.73,14.24v1.3h-16v-1.3a1.18,1.18,0,0,1,1-1.3h14A1.18,1.18,0,0,1,17.37,17.13Zm-14-2.7v-7H5.76v7Zm4,0v-7h4v7Zm5.66,0v-7h2.34v7ZM17.37,6h-16V4.26l8-2.67,8,2.67Z"/></g></g></svg>