<svg version="1.1" id="Wrapped-Gift--Streamline-Noto-Emoji" xmlns="http://www.w3.org/2000/svg" xmlns:xlink="http://www.w3.org/1999/xlink" x="0" y="0" viewBox="-0.5 -0.5 24 24" xml:space="preserve" enable-background="new 0 0 128 128" height="24" width="24"><desc>Wrapped Gift Streamline Emoji: https://streamlinehq.com</desc><path d="M2.946875 5.701484375s-1.158984375 0.091640625 -1.313515625 0.3521875c-0.156328125 0.260546875 -0.1653125 0.66125 -0.1653125 1.101484375 0 0.44203125 -0.017968750000000002 1.4554687499999999 -0.017968750000000002 1.4554687499999999l0.27671875 0.594765625s0.052109375 7.581015624999999 0.052109375 7.81640625c0 0.23359375000000002 0 0.519296875 0.33781249999999996 0.70078125 0.33781249999999996 0.181484375 8.923281249999999 4.328671875 9.191015625 4.440078125 0.404296875 0.167109375 0.5965625 0.10421875 0.5965625 0.10421875l9.539609375000001 -15.954453125s-0.030546875 -0.436640625 -0.42765624999999996 -0.5408593749999999c-0.228203125 -0.0575 -18.069375 -0.070078125 -18.069375 -0.070078125z" fill="#F5B03E" stroke-width="1"></path><path d="M11.801875 10.9465625c-0.14554687500000002 0.400703125 -0.0790625 4.544296875 -0.053906249999999996 7.557656250000001 0.02515625 3.0115625 -0.077265625 3.635078125 0 3.739296875 0.077265625 0.10421875 0.28750000000000003 0.00359375 0.882265625 -0.260546875 1.1050781250000001 -0.48875 6.413046874999999 -3.11578125 6.80296875 -3.349375 0.389921875 -0.23359375000000002 1.342265625 -0.7169531250000001 1.49859375 -0.9775s0.24078125 -2.68453125 0.29289062499999996 -4.630546875c0.052109375 -1.9478125 0.10421875 -3.505703125 0.10421875 -3.505703125l0.23359375000000002 -0.70078125s-0.0503125 -1.89390625 -0.059296875000000006 -2.1023437499999997c-0.016171875 -0.345 -0.053906249999999996 -0.522890625 -0.141953125 -0.479765625 -0.12578124999999998 0.059296875000000006 -1.17515625 0.92 -3.953125 2.27125 -1.744765625 0.846328125 -5.505625 2.161640625 -5.60625 2.438359375z" fill="#E07F14" stroke-width="1"></path><path d="M11.82703125 2.0142968750000003c-0.778046875 -0.035937500000000004 -2.90734375 1.1949218750000001 -4.9593750000000005 1.8687500000000001S1.7178125000000002 5.9117187499999995 1.690859375 5.99078125c-0.02515625 0.077265625 1.24703125 0.646875 2.0592187500000003 1.0367968749999998 0.964921875 0.461796875 4.648515625 2.2065625 5.32234375 2.492265625 0.6756249999999999 0.285703125 2.285625 0.954140625 2.544375 0.9343750000000001 0.36296875 -0.02515625 3.79140625 -1.37640625 5.53078125 -2.2065625s3.9135937500000004 -2.11671875 3.94234375 -2.429375c0.012578125 -0.14015625 -3.1984375000000003 -1.338671875 -4.799453125 -2.0628125 -3.0906249999999997 -1.399765625 -3.893828125 -1.71421875 -4.4634375 -1.7411718749999998z" fill="#FDD717" stroke-width="1"></path><path d="M1.4590625 8.943046875c0.026953124999999998 0.33781249999999996 0.21203124999999998 0.458203125 0.6828124999999999 0.663046875 0.47078125000000004 0.20484375 9.370703125 4.828203125 9.575546875 4.828203125 0.20484375 0 0.2659375 -0.733125 0.041328125 -0.713359375 -0.1221875 0.01078125 -3.0457031249999997 -1.378203125 -5.7769531249999995 -2.765390625C3.663828125 9.780390625 1.4446875 8.60703125 1.4446875 8.60703125l0.014375 0.33601562500000004z" fill="#E37D14" stroke-width="1"></path><path d="M21.564296875 8.802890625S12.060625000000002 13.636484375 11.9671875 13.683203125s-0.242578125 0.030546875 -0.242578125 0.030546875l-0.0071875 0.7205468749999999s0.088046875 0.019765625 0.186875 -0.01078125c0.0575 -0.017968750000000002 9.385078125 -4.846171875 9.42640625 -4.860546875s0.221015625 -0.1221875 0.25875 -0.350390625c0.03234375 -0.18328125 -0.02515625 -0.4096875 -0.02515625 -0.4096875z" fill="#BA5E0D" stroke-width="1"></path><path d="m5.18578125 17.50515625 1.8597656249999999 2.7671875 0.8139843750000001 0.278515625s0.066484375 -3.0187500000000003 0.0934375 -5.255859375c0.037734375 -3.268515625 0.023359375 -6.24953125 0.070078125 -6.4184375 0.077265625 -0.285703125 3.694375 -1.4590625 3.694375 -1.4590625S15.803515625000001 8.698671874999999 15.932890625 8.984375c0.0575 0.12578124999999998 0.012578125 2.2425 0 4.709609375 -0.016171875 3.11578125 -0.01078125 6.713125 -0.01078125 6.713125s0.42226562500000003 -0.001796875 0.47257812499999996 -0.158125c0.052109375 -0.156328125 0.260546875 -1.36203125 0.260546875 -1.36203125l1.58484375 -10.563828125 0.805 -1.03859375 -1.11765625 -2.1275 -4.585625 -2.256875 -1.5758593749999998 0.353984375 -1.705234375 -0.260546875 -5.4085937500000005 3.8866406249999996 0.6307031249999999 1.279375 1.5471093749999998 0.788828125 -1.6441406250000001 8.55671875z" fill="#AF0F1B" stroke-width="1"></path><path d="M16.401875 8.874765625c-0.098828125 0.217421875 -0.041328125 11.4209375 -0.041328125 11.4209375s0.494140625 -0.273125 1.130234375 -0.57859375c0.6325 -0.303671875 1.087109375 -0.49234375 1.1266406249999998 -0.65046875s0.109609375 -11.23765625 0.109609375 -11.23765625l-2.32515625 1.04578125z" fill="#DC0D28" stroke-width="1"></path><path d="M7.4300781250000005 8.64296875c0.059296875000000006 0.0646875 -0.037734375 11.69046875 -0.158125 11.717421875 -0.09523437500000001 0.023359375 -2.26046875 -0.943359375 -2.26046875 -1.0421875 0 -0.098828125 0.174296875 -11.20890625 0.174296875 -11.20890625S7.253984375 8.4453125 7.4300781250000005 8.64296875z" fill="#FF2A23" stroke-width="1"></path><path d="M11.721015625000001 2.560546875c-0.598359375 0 -1.259609375 0.17070312499999998 -1.451875 0.6720312500000001s-0.23539062500000002 1.24703125 -0.23539062500000002 1.8040625c0 0.533671875 -0.08625 1.899296875 1.557890625 1.877734375 1.6441406250000001 -0.0215625 1.69265625 -0.6307031249999999 1.7178125000000002 -1.974765625 0.0215625 -1.12125 -0.127578125 -1.6657031249999998 -0.27671875 -1.899296875 -0.13296875 -0.21023437499999997 -0.5750000000000001 -0.479765625 -1.31171875 -0.479765625z" fill="#FF2A23" stroke-width="1"></path><path d="M10.77046875 5.334921875c0.37375 0.0215625 0.533671875 -0.7996093750000001 0.8211718750000001 -1.248828125 0.28750000000000003 -0.447421875 0.587578125 -0.7475 0.479765625 -0.98109375 -0.088046875 -0.19406250000000003 -0.8696875 -0.256953125 -1.291953125 0.330625 -0.29648437499999997 0.415078125 -0.34859375 1.87953125 -0.008984375000000001 1.899296875z" fill="#FCC9D2" stroke-width="1"></path><path d="M13.176484375 2.95046875s0.5300781250000001 0.5390625 0.6684375 1.595625 -0.0215625 1.877734375 -0.0215625 1.877734375 2.63421875 -0.0790625 3.5434374999999996 0.09523437500000001c0.8966406250000001 0.174296875 1.2092968750000002 0.569609375 1.2092968750000002 0.857109375 0 0.28750000000000003 -0.589375 0.519296875 -1.187734375 0.47617187499999997s-1.00265625 -0.07546875 -1.078125 0.07546875 0.03234375 0.38453125000000005 0.864296875 0.447421875c0.831953125 0.0646875 1.7932812500000002 -0.053906249999999996 2.0915625 -1.08890625s0.3090625 -2.82828125 0.203046875 -4.120234375c-0.10601562499999999 -1.291953125 -0.339609375 -2.0304687500000003 -0.918203125 -2.31078125 -0.609140625 -0.29289062499999996 -2.1346875 -0.34140624999999997 -3.57578125 0.46898437499999995s-1.798671875 1.626171875 -1.798671875 1.626171875z" fill="#FF2A23" stroke-width="1"></path><path d="M16.16109375 1.72140625c-0.186875 -0.24078125 -0.788828125 -0.23359375000000002 -1.11046875 0.138359375 -0.34140624999999997 0.3953125 -0.416875 1.899296875 0.0215625 1.985546875 0.4959375 0.09703125000000001 0.40609375 -0.71515625 0.7690625000000001 -1.2164843749999998 0.35578125 -0.490546875 0.501328125 -0.6720312500000001 0.31984375 -0.9074218749999999z" fill="#FCC9D2" stroke-width="1"></path><path d="M10.13078125 3.0025781250000003S8.112890625 0.65046875 5.8075 0.68640625c-1.3871875 0.0215625 -1.739375 0.8211718750000001 -1.8148437499999999 1.151796875s-0.65046875 3.61890625 0.11679687500000001 5.399609375S6.46875 8.55671875 6.718515625 8.499218749999999c0.31984375 -0.07546875 1.000859375 -0.3090625 0.936171875 -0.555234375 -0.0646875 -0.246171875 -2.3269531249999997 0.6396875 -2.348515625 -0.37375s1.601015625 -1.12125 2.348515625 -1.1428125c0.7475 -0.0215625 2.0286718749999997 0.149140625 2.0286718749999997 0.149140625s-0.224609375 -1.227265625 -0.07546875 -2.1023437499999997 0.522890625 -1.4716406249999998 0.522890625 -1.4716406249999998z" fill="#FF2A23" stroke-width="1"></path><path d="M5.189375 1.539921875c-0.28750000000000003 0.29828125 -0.40609375 2.017890625 -0.224609375 2.87140625s0.34140624999999997 1.2164843749999998 0.71515625 1.1428125c0.31265625 -0.06289062499999999 0.501328125 -1.737578125 0.65046875 -2.3269531249999997 0.159921875 -0.62890625 0.555234375 -1.29734375 0.3953125 -1.5902343749999999 -0.244375 -0.44921875 -1.23625 -0.407890625 -1.536328125 -0.09703125000000001z" fill="#FCC9D2" stroke-width="1"></path></svg>