<svg xmlns="http://www.w3.org/2000/svg" width="262.3" height="238.89" viewBox="0 0 262.3 238.89"><defs><style>.cls-1{fill:#dc3646;}</style></defs><g id="Layer_2" data-name="Layer 2"><g id="Layer_1-2" data-name="Layer 1"><path class="cls-1" d="M223.18,55.43H39.12c-11.36,0-20.61-8.58-20.61-19.13s9.25-19.12,20.61-19.12H188.45c11.36,0,20.61,1.58,20.61,12.12v-.37a9.26,9.26,0,1,0,18.51,0v.37C227.57,9.28,210,0,188.45,0H39.12C17.55,0,0,16.29,0,36.3V202.59c0,20,17.55,36.3,39.12,36.3H223.18c21.57,0,39.12-16.28,39.12-37.3V90.73C262.3,71.71,244.75,55.43,223.18,55.43Zm20.61,110.86H223.18c-11.37,0-23.61-4.58-23.61-15.13S211.81,137,223.18,137h20.61Zm0-46.43H223.18c-21.57,0-42.12,11.28-42.12,31.3s20.55,32.3,42.12,32.3h20.61v19.13c0,10.54-9.25,19.12-20.61,19.12H39.12c-11.36,0-20.61-8.58-20.61-19.12V68.08l7.56,2.47a42,42,0,0,0,13,2.06H223.18c11.36,0,20.61,8.57,20.61,19.12Z"/></g></g></svg>